<svg xmlns="http://www.w3.org/2000/svg" xmlns:xlink="http://www.w3.org/1999/xlink" width="100" zoomAndPan="magnify" viewBox="0 0 75 74.999997" height="100" preserveAspectRatio="xMidYMid meet" version="1.0"><defs><clipPath id="fe4bbbce60"><path d="M 41 11.71875 L 67 11.71875 L 67 38 L 41 38 Z M 41 11.71875 " clip-rule="nonzero"/></clipPath><clipPath id="41fe2ca75d"><path d="M 8 11.71875 L 34 11.71875 L 34 38 L 8 38 Z M 8 11.71875 " clip-rule="nonzero"/></clipPath><clipPath id="cdca73a02e"><path d="M 0 37 L 43 37 L 43 63.46875 L 0 63.46875 Z M 0 37 " clip-rule="nonzero"/></clipPath><clipPath id="0c5725dd86"><path d="M 39 37 L 75 37 L 75 63.46875 L 39 63.46875 Z M 39 37 " clip-rule="nonzero"/></clipPath><clipPath id="d1301a3569"><path d="M 8.621094 57.230469 L 10 57.230469 L 10 59 L 8.621094 59 Z M 8.621094 57.230469 " clip-rule="nonzero"/></clipPath><clipPath id="a18dc27470"><path d="M 9 58 L 10 58 L 10 59.480469 L 9 59.480469 Z M 9 58 " clip-rule="nonzero"/></clipPath><clipPath id="d5702cdac7"><path d="M 8.621094 58 L 10 58 L 10 59.480469 L 8.621094 59.480469 Z M 8.621094 58 " clip-rule="nonzero"/></clipPath><clipPath id="12519d9a94"><path d="M 9 58 L 10.871094 58 L 10.871094 59.480469 L 9 59.480469 Z M 9 58 " clip-rule="nonzero"/></clipPath><clipPath id="cd6625ad0d"><path d="M 9 57.230469 L 10.871094 57.230469 L 10.871094 59 L 9 59 Z M 9 57.230469 " clip-rule="nonzero"/></clipPath><clipPath id="213433582e"><path d="M 9 57.230469 L 10 57.230469 L 10 58 L 9 58 Z M 9 57.230469 " clip-rule="nonzero"/></clipPath><clipPath id="48dba20c1a"><path d="M 9 57.230469 L 10 57.230469 L 10 59 L 9 59 Z M 9 57.230469 " clip-rule="nonzero"/></clipPath><clipPath id="389ea0c3fc"><path d="M 9 57.230469 L 10 57.230469 L 10 58 L 9 58 Z M 9 57.230469 " clip-rule="nonzero"/></clipPath><clipPath id="3e5e33edce"><path d="M 9 57.230469 L 10.871094 57.230469 L 10.871094 58 L 9 58 Z M 9 57.230469 " clip-rule="nonzero"/></clipPath><clipPath id="5978c8ce3c"><path d="M 9 57.230469 L 10.871094 57.230469 L 10.871094 59 L 9 59 Z M 9 57.230469 " clip-rule="nonzero"/></clipPath><clipPath id="02cc505caa"><path d="M 8.621094 57.230469 L 10 57.230469 L 10 59 L 8.621094 59 Z M 8.621094 57.230469 " clip-rule="nonzero"/></clipPath></defs><g clip-path="url(#fe4bbbce60)"><path fill="#c9032f" d="M 53.90625 37.5 C 61.011719 37.5 66.796875 31.714844 66.796875 24.609375 C 66.796875 17.5 61.011719 11.71875 53.90625 11.71875 C 46.796875 11.71875 41.015625 17.5 41.015625 24.609375 C 41.015625 31.714844 46.796875 37.5 53.90625 37.5 Z M 53.90625 37.5 " fill-opacity="1" fill-rule="nonzero"/></g><g clip-path="url(#41fe2ca75d)"><path fill="#c9032f" d="M 21.09375 37.5 C 28.203125 37.5 33.984375 31.714844 33.984375 24.609375 C 33.984375 17.5 28.203125 11.71875 21.09375 11.71875 C 13.984375 11.71875 8.203125 17.5 8.203125 24.609375 C 8.203125 31.714844 13.988281 37.5 21.09375 37.5 Z M 21.09375 37.5 " fill-opacity="1" fill-rule="nonzero"/></g><g clip-path="url(#cdca73a02e)"><path fill="#c9032f" d="M 29.09375 37.550781 C 26.765625 38.992188 24.03125 39.84375 21.09375 39.84375 C 18.15625 39.84375 15.421875 38.992188 13.09375 37.550781 C 5.792969 38.050781 0 44.136719 0 51.5625 L 0 58.59375 C 0 61.171875 2.109375 63.28125 4.6875 63.28125 L 37.5 63.28125 C 40.078125 63.28125 42.1875 61.171875 42.1875 58.59375 L 42.1875 51.5625 C 42.1875 44.136719 36.394531 38.050781 29.09375 37.550781 Z M 29.09375 37.550781 " fill-opacity="1" fill-rule="nonzero"/></g><g clip-path="url(#0c5725dd86)"><path fill="#c9032f" d="M 61.90625 37.550781 C 59.578125 38.992188 56.84375 39.84375 53.90625 39.84375 C 50.96875 39.84375 48.234375 38.992188 45.90625 37.550781 C 43.519531 37.714844 41.300781 38.480469 39.386719 39.6875 C 42.554688 42.691406 44.53125 46.914062 44.53125 51.5625 L 44.53125 58.59375 C 44.53125 60.394531 43.84375 62.035156 42.726562 63.28125 L 70.3125 63.28125 C 72.890625 63.28125 75 61.171875 75 58.59375 L 75 51.5625 C 75 44.136719 69.207031 38.050781 61.90625 37.550781 Z M 61.90625 37.550781 " fill-opacity="1" fill-rule="nonzero"/></g><g clip-path="url(#d1301a3569)"><path fill="#c9032f" d="M 9.042969 58.402344 C 9.007812 58.402344 8.976562 58.371094 8.976562 58.335938 L 8.976562 58.0625 C 8.976562 58.027344 9.007812 57.996094 9.042969 57.996094 C 9.082031 57.996094 9.109375 58.027344 9.109375 58.0625 L 9.109375 58.335938 C 9.109375 58.371094 9.082031 58.402344 9.042969 58.402344 Z M 9.042969 58.402344 " fill-opacity="1" fill-rule="nonzero"/></g><g clip-path="url(#a18dc27470)"><path fill="#c9032f" d="M 9.445312 59.417969 C 9.335938 59.417969 9.246094 59.328125 9.246094 59.214844 L 9.246094 59.023438 C 9.246094 58.988281 9.277344 58.957031 9.3125 58.957031 C 9.351562 58.957031 9.378906 58.988281 9.378906 59.023438 L 9.378906 59.214844 C 9.378906 59.253906 9.410156 59.285156 9.445312 59.285156 C 9.484375 59.285156 9.515625 59.253906 9.515625 59.214844 L 9.515625 58.335938 C 9.515625 58.296875 9.542969 58.269531 9.582031 58.269531 C 9.617188 58.269531 9.648438 58.296875 9.648438 58.335938 L 9.648438 59.214844 C 9.648438 59.328125 9.558594 59.417969 9.445312 59.417969 Z M 9.445312 59.417969 " fill-opacity="1" fill-rule="nonzero"/></g><g clip-path="url(#d5702cdac7)"><path fill="#c9032f" d="M 9.179688 59.417969 C 9.066406 59.417969 8.976562 59.328125 8.976562 59.214844 L 8.976562 58.335938 C 8.976562 58.296875 9.007812 58.269531 9.042969 58.269531 C 9.082031 58.269531 9.109375 58.296875 9.109375 58.335938 L 9.109375 59.214844 C 9.109375 59.253906 9.140625 59.285156 9.179688 59.285156 C 9.214844 59.285156 9.246094 59.253906 9.246094 59.214844 L 9.246094 58.539062 C 9.246094 58.5 9.277344 58.472656 9.3125 58.472656 C 9.351562 58.472656 9.378906 58.5 9.378906 58.539062 L 9.378906 59.214844 C 9.378906 59.328125 9.289062 59.417969 9.179688 59.417969 Z M 9.179688 59.417969 " fill-opacity="1" fill-rule="nonzero"/></g><g clip-path="url(#12519d9a94)"><path fill="#c9032f" d="M 10.160156 59.417969 C 10.050781 59.417969 9.960938 59.328125 9.960938 59.214844 L 9.960938 59.023438 C 9.960938 58.988281 9.988281 58.957031 10.027344 58.957031 C 10.0625 58.957031 10.09375 58.988281 10.09375 59.023438 L 10.09375 59.214844 C 10.09375 59.253906 10.125 59.285156 10.160156 59.285156 C 10.199219 59.285156 10.226562 59.253906 10.226562 59.214844 L 10.226562 58.074219 C 10.226562 58.039062 10.257812 58.007812 10.292969 58.007812 C 10.332031 58.007812 10.363281 58.039062 10.363281 58.074219 L 10.363281 59.214844 C 10.363281 59.328125 10.269531 59.417969 10.160156 59.417969 Z M 10.160156 59.417969 " fill-opacity="1" fill-rule="nonzero"/><path fill="#c9032f" d="M 9.890625 59.417969 C 9.78125 59.417969 9.691406 59.328125 9.691406 59.214844 L 9.691406 58.335938 C 9.691406 58.296875 9.71875 58.269531 9.757812 58.269531 C 9.792969 58.269531 9.824219 58.296875 9.824219 58.335938 L 9.824219 59.214844 C 9.824219 59.253906 9.855469 59.285156 9.890625 59.285156 C 9.929688 59.285156 9.960938 59.253906 9.960938 59.214844 L 9.960938 58.539062 C 9.960938 58.5 9.988281 58.472656 10.027344 58.472656 C 10.0625 58.472656 10.09375 58.5 10.09375 58.539062 L 10.09375 59.214844 C 10.09375 59.328125 10.003906 59.417969 9.890625 59.417969 Z M 9.890625 59.417969 " fill-opacity="1" fill-rule="nonzero"/></g><g clip-path="url(#cd6625ad0d)"><path fill="#c9032f" d="M 9.582031 58.402344 C 9.542969 58.402344 9.515625 58.371094 9.515625 58.335938 L 9.515625 57.917969 C 9.515625 57.871094 9.542969 57.832031 9.585938 57.816406 L 9.921875 57.683594 C 9.957031 57.667969 9.996094 57.6875 10.011719 57.71875 C 10.023438 57.753906 10.007812 57.792969 9.972656 57.808594 L 9.648438 57.933594 L 9.648438 58.335938 C 9.648438 58.371094 9.617188 58.402344 9.582031 58.402344 Z M 9.582031 58.402344 " fill-opacity="1" fill-rule="nonzero"/></g><g clip-path="url(#213433582e)"><path fill="#c9032f" d="M 9.480469 57.742188 C 9.453125 57.742188 9.425781 57.726562 9.417969 57.695312 C 9.40625 57.664062 9.421875 57.625 9.457031 57.613281 L 9.761719 57.507812 C 9.796875 57.496094 9.835938 57.515625 9.847656 57.550781 C 9.859375 57.585938 9.839844 57.621094 9.804688 57.632812 L 9.5 57.738281 C 9.496094 57.742188 9.488281 57.742188 9.480469 57.742188 Z M 9.480469 57.742188 " fill-opacity="1" fill-rule="nonzero"/></g><g clip-path="url(#48dba20c1a)"><path fill="#c9032f" d="M 9.757812 58.402344 C 9.71875 58.402344 9.691406 58.371094 9.691406 58.335938 L 9.691406 58.105469 L 9.605469 58.136719 C 9.570312 58.148438 9.53125 58.132812 9.519531 58.097656 C 9.507812 58.0625 9.523438 58.023438 9.558594 58.011719 L 9.675781 57.972656 C 9.710938 57.960938 9.746094 57.964844 9.777344 57.984375 C 9.804688 58.007812 9.824219 58.039062 9.824219 58.074219 L 9.824219 58.335938 C 9.824219 58.371094 9.792969 58.402344 9.757812 58.402344 Z M 9.757812 58.402344 " fill-opacity="1" fill-rule="nonzero"/></g><g clip-path="url(#389ea0c3fc)"><path fill="#c9032f" d="M 9.3125 57.828125 C 9.160156 57.828125 9.039062 57.703125 9.039062 57.554688 L 9.039062 57.511719 C 9.039062 57.359375 9.160156 57.238281 9.3125 57.238281 C 9.464844 57.238281 9.585938 57.359375 9.585938 57.511719 L 9.585938 57.554688 C 9.585938 57.703125 9.464844 57.828125 9.3125 57.828125 Z M 9.3125 57.371094 C 9.234375 57.371094 9.171875 57.433594 9.171875 57.511719 L 9.171875 57.554688 C 9.171875 57.628906 9.234375 57.695312 9.3125 57.695312 C 9.390625 57.695312 9.453125 57.628906 9.453125 57.554688 L 9.453125 57.511719 C 9.453125 57.433594 9.390625 57.371094 9.3125 57.371094 Z M 9.3125 57.371094 " fill-opacity="1" fill-rule="nonzero"/></g><g clip-path="url(#3e5e33edce)"><path fill="#c9032f" d="M 10.027344 57.828125 C 9.875 57.828125 9.753906 57.703125 9.753906 57.554688 L 9.753906 57.511719 C 9.753906 57.359375 9.875 57.234375 10.027344 57.234375 C 10.175781 57.234375 10.300781 57.359375 10.300781 57.511719 L 10.300781 57.554688 C 10.300781 57.703125 10.175781 57.828125 10.027344 57.828125 Z M 10.027344 57.371094 C 9.949219 57.371094 9.886719 57.433594 9.886719 57.511719 L 9.886719 57.554688 C 9.886719 57.628906 9.949219 57.695312 10.027344 57.695312 C 10.101562 57.695312 10.167969 57.628906 10.167969 57.554688 L 10.167969 57.511719 C 10.167969 57.433594 10.101562 57.371094 10.027344 57.371094 Z M 10.027344 57.371094 " fill-opacity="1" fill-rule="nonzero"/></g><g clip-path="url(#5978c8ce3c)"><path fill="#c9032f" d="M 10.542969 58.511719 C 10.472656 58.511719 10.410156 58.472656 10.382812 58.410156 L 10.234375 58.089844 C 10.21875 58.058594 10.234375 58.015625 10.265625 58 C 10.300781 57.988281 10.339844 58 10.355469 58.035156 L 10.503906 58.355469 C 10.511719 58.371094 10.527344 58.378906 10.542969 58.378906 C 10.5625 58.378906 10.574219 58.367188 10.578125 58.359375 C 10.582031 58.355469 10.589844 58.335938 10.582031 58.320312 L 10.414062 57.960938 C 10.378906 57.878906 10.296875 57.828125 10.207031 57.828125 L 10.027344 57.828125 C 9.988281 57.828125 9.960938 57.796875 9.960938 57.761719 C 9.960938 57.722656 9.988281 57.691406 10.027344 57.691406 L 10.207031 57.691406 C 10.347656 57.691406 10.476562 57.777344 10.535156 57.902344 L 10.703125 58.261719 C 10.726562 58.316406 10.722656 58.378906 10.691406 58.429688 C 10.65625 58.480469 10.601562 58.511719 10.542969 58.511719 Z M 10.542969 58.511719 " fill-opacity="1" fill-rule="nonzero"/></g><g clip-path="url(#02cc505caa)"><path fill="#c9032f" d="M 8.796875 58.511719 C 8.738281 58.511719 8.679688 58.480469 8.648438 58.429688 C 8.617188 58.378906 8.613281 58.316406 8.636719 58.261719 L 8.804688 57.902344 C 8.863281 57.777344 8.992188 57.695312 9.132812 57.695312 L 9.3125 57.695312 C 9.351562 57.695312 9.378906 57.722656 9.378906 57.761719 C 9.378906 57.796875 9.351562 57.828125 9.3125 57.828125 L 9.132812 57.828125 C 9.042969 57.828125 8.960938 57.878906 8.925781 57.960938 L 8.757812 58.320312 C 8.75 58.335938 8.757812 58.355469 8.761719 58.359375 C 8.765625 58.367188 8.777344 58.378906 8.796875 58.378906 C 8.8125 58.378906 8.828125 58.371094 8.835938 58.355469 L 8.984375 58.035156 C 9 58 9.039062 57.988281 9.074219 58.003906 C 9.105469 58.015625 9.121094 58.058594 9.105469 58.089844 L 8.957031 58.410156 C 8.929688 58.472656 8.867188 58.511719 8.796875 58.511719 Z M 8.796875 58.511719 " fill-opacity="1" fill-rule="nonzero"/></g></svg>